<?xml version="1.0" encoding="UTF-8"?><svg id="Layer_1" xmlns="http://www.w3.org/2000/svg" viewBox="0 0 43.63 35.14"><defs><style>.cls-1{fill:#121212;}</style></defs><path class="cls-1" d="M12.53,0C5.18,5.18,0,13.68,0,23.04c0,7.63,4.61,12.1,9.94,12.1,5.04,0,8.78-4.03,8.78-8.78s-3.31-8.21-7.63-8.21c-.86,0-2.02,.14-2.3,.29,.72-4.9,5.33-10.66,9.94-13.54L12.53,0Zm24.77,0c-7.2,5.18-12.38,13.68-12.38,23.04,0,7.63,4.61,12.1,9.94,12.1,4.9,0,8.78-4.03,8.78-8.78s-3.46-8.21-7.78-8.21c-.86,0-1.87,.14-2.16,.29,.72-4.9,5.18-10.66,9.79-13.54L37.3,0Z"/></svg>