<?xml version="1.0" encoding="UTF-8"?><svg id="Layer_1" xmlns="http://www.w3.org/2000/svg" viewBox="0 0 241 298"><defs><style>.cls-1{fill:#232323;}</style></defs><path class="cls-1" d="M0,0H4V4H0V0Z"/><path class="cls-1" d="M20,0h4V4h-4V0Z"/><path class="cls-1" d="M40,0h4V4h-4V0Z"/><path class="cls-1" d="M60,0h4V4h-4V0Z"/><path class="cls-1" d="M80,0h4V4h-4V0Z"/><path class="cls-1" d="M100,0h4V4h-4V0Z"/><path class="cls-1" d="M120,0h4V4h-4V0Z"/><path class="cls-1" d="M140,0h4V4h-4V0Z"/><path class="cls-1" d="M160,0h4V4h-4V0Z"/><path class="cls-1" d="M180,0h4V4h-4V0Z"/><path class="cls-1" d="M200,0h4V4h-4V0Z"/><path class="cls-1" d="M220,0h4V4h-4V0Z"/><path class="cls-1" d="M240,0h4V4h-4V0Z"/><path class="cls-1" d="M0,20H4v4H0v-4Z"/><path class="cls-1" d="M20,20h4v4h-4v-4Z"/><path class="cls-1" d="M40,20h4v4h-4v-4Z"/><path class="cls-1" d="M60,20h4v4h-4v-4Z"/><path class="cls-1" d="M80,20h4v4h-4v-4Z"/><path class="cls-1" d="M100,20h4v4h-4v-4Z"/><path class="cls-1" d="M120,20h4v4h-4v-4Z"/><path class="cls-1" d="M140,20h4v4h-4v-4Z"/><path class="cls-1" d="M160,20h4v4h-4v-4Z"/><path class="cls-1" d="M180,20h4v4h-4v-4Z"/><path class="cls-1" d="M200,20h4v4h-4v-4Z"/><path class="cls-1" d="M220,20h4v4h-4v-4Z"/><path class="cls-1" d="M240,20h4v4h-4v-4Z"/><path class="cls-1" d="M0,40H4v4H0v-4Z"/><path class="cls-1" d="M20,40h4v4h-4v-4Z"/><path class="cls-1" d="M40,40h4v4h-4v-4Z"/><path class="cls-1" d="M60,40h4v4h-4v-4Z"/><path class="cls-1" d="M80,40h4v4h-4v-4Z"/><path class="cls-1" d="M100,40h4v4h-4v-4Z"/><path class="cls-1" d="M120,40h4v4h-4v-4Z"/><path class="cls-1" d="M140,40h4v4h-4v-4Z"/><path class="cls-1" d="M160,40h4v4h-4v-4Z"/><path class="cls-1" d="M180,40h4v4h-4v-4Z"/><path class="cls-1" d="M200,40h4v4h-4v-4Z"/><path class="cls-1" d="M220,40h4v4h-4v-4Z"/><path class="cls-1" d="M240,40h4v4h-4v-4Z"/><path class="cls-1" d="M0,60H4v4H0v-4Z"/><path class="cls-1" d="M20,60h4v4h-4v-4Z"/><path class="cls-1" d="M40,60h4v4h-4v-4Z"/><path class="cls-1" d="M60,60h4v4h-4v-4Z"/><path class="cls-1" d="M80,60h4v4h-4v-4Z"/><path class="cls-1" d="M100,60h4v4h-4v-4Z"/><path class="cls-1" d="M120,60h4v4h-4v-4Z"/><path class="cls-1" d="M140,60h4v4h-4v-4Z"/><path class="cls-1" d="M160,60h4v4h-4v-4Z"/><path class="cls-1" d="M180,60h4v4h-4v-4Z"/><path class="cls-1" d="M200,60h4v4h-4v-4Z"/><path class="cls-1" d="M220,60h4v4h-4v-4Z"/><path class="cls-1" d="M240,60h4v4h-4v-4Z"/><path class="cls-1" d="M0,80H4v4H0v-4Z"/><path class="cls-1" d="M20,80h4v4h-4v-4Z"/><path class="cls-1" d="M40,80h4v4h-4v-4Z"/><path class="cls-1" d="M60,80h4v4h-4v-4Z"/><path class="cls-1" d="M80,80h4v4h-4v-4Z"/><path class="cls-1" d="M100,80h4v4h-4v-4Z"/><path class="cls-1" d="M120,80h4v4h-4v-4Z"/><path class="cls-1" d="M140,80h4v4h-4v-4Z"/><path class="cls-1" d="M160,80h4v4h-4v-4Z"/><path class="cls-1" d="M180,80h4v4h-4v-4Z"/><path class="cls-1" d="M200,80h4v4h-4v-4Z"/><path class="cls-1" d="M220,80h4v4h-4v-4Z"/><path class="cls-1" d="M240,80h4v4h-4v-4Z"/><path class="cls-1" d="M0,100H4v4H0v-4Z"/><path class="cls-1" d="M20,100h4v4h-4v-4Z"/><path class="cls-1" d="M40,100h4v4h-4v-4Z"/><path class="cls-1" d="M60,100h4v4h-4v-4Z"/><path class="cls-1" d="M80,100h4v4h-4v-4Z"/><path class="cls-1" d="M100,100h4v4h-4v-4Z"/><path class="cls-1" d="M120,100h4v4h-4v-4Z"/><path class="cls-1" d="M140,100h4v4h-4v-4Z"/><path class="cls-1" d="M160,100h4v4h-4v-4Z"/><path class="cls-1" d="M180,100h4v4h-4v-4Z"/><path class="cls-1" d="M200,100h4v4h-4v-4Z"/><path class="cls-1" d="M220,100h4v4h-4v-4Z"/><path class="cls-1" d="M240,100h4v4h-4v-4Z"/><path class="cls-1" d="M0,120H4v4H0v-4Z"/><path class="cls-1" d="M20,120h4v4h-4v-4Z"/><path class="cls-1" d="M40,120h4v4h-4v-4Z"/><path class="cls-1" d="M60,120h4v4h-4v-4Z"/><path class="cls-1" d="M80,120h4v4h-4v-4Z"/><path class="cls-1" d="M100,120h4v4h-4v-4Z"/><path class="cls-1" d="M120,120h4v4h-4v-4Z"/><path class="cls-1" d="M140,120h4v4h-4v-4Z"/><path class="cls-1" d="M160,120h4v4h-4v-4Z"/><path class="cls-1" d="M180,120h4v4h-4v-4Z"/><path class="cls-1" d="M200,120h4v4h-4v-4Z"/><path class="cls-1" d="M220,120h4v4h-4v-4Z"/><path class="cls-1" d="M240,120h4v4h-4v-4Z"/><path class="cls-1" d="M0,140H4v4H0v-4Z"/><path class="cls-1" d="M20,140h4v4h-4v-4Z"/><path class="cls-1" d="M40,140h4v4h-4v-4Z"/><path class="cls-1" d="M60,140h4v4h-4v-4Z"/><path class="cls-1" d="M80,140h4v4h-4v-4Z"/><path class="cls-1" d="M100,140h4v4h-4v-4Z"/><path class="cls-1" d="M120,140h4v4h-4v-4Z"/><path class="cls-1" d="M140,140h4v4h-4v-4Z"/><path class="cls-1" d="M160,140h4v4h-4v-4Z"/><path class="cls-1" d="M180,140h4v4h-4v-4Z"/><path class="cls-1" d="M200,140h4v4h-4v-4Z"/><path class="cls-1" d="M220,140h4v4h-4v-4Z"/><path class="cls-1" d="M240,140h4v4h-4v-4Z"/><path class="cls-1" d="M0,160H4v4H0v-4Z"/><path class="cls-1" d="M20,160h4v4h-4v-4Z"/><path class="cls-1" d="M40,160h4v4h-4v-4Z"/><path class="cls-1" d="M60,160h4v4h-4v-4Z"/><path class="cls-1" d="M80,160h4v4h-4v-4Z"/><path class="cls-1" d="M100,160h4v4h-4v-4Z"/><path class="cls-1" d="M120,160h4v4h-4v-4Z"/><path class="cls-1" d="M140,160h4v4h-4v-4Z"/><path class="cls-1" d="M160,160h4v4h-4v-4Z"/><path class="cls-1" d="M180,160h4v4h-4v-4Z"/><path class="cls-1" d="M200,160h4v4h-4v-4Z"/><path class="cls-1" d="M220,160h4v4h-4v-4Z"/><path class="cls-1" d="M240,160h4v4h-4v-4Z"/><path class="cls-1" d="M0,180H4v4H0v-4Z"/><path class="cls-1" d="M20,180h4v4h-4v-4Z"/><path class="cls-1" d="M40,180h4v4h-4v-4Z"/><path class="cls-1" d="M60,180h4v4h-4v-4Z"/><path class="cls-1" d="M80,180h4v4h-4v-4Z"/><path class="cls-1" d="M100,180h4v4h-4v-4Z"/><path class="cls-1" d="M120,180h4v4h-4v-4Z"/><path class="cls-1" d="M140,180h4v4h-4v-4Z"/><path class="cls-1" d="M160,180h4v4h-4v-4Z"/><path class="cls-1" d="M180,180h4v4h-4v-4Z"/><path class="cls-1" d="M200,180h4v4h-4v-4Z"/><path class="cls-1" d="M220,180h4v4h-4v-4Z"/><path class="cls-1" d="M240,180h4v4h-4v-4Z"/><path class="cls-1" d="M0,200H4v4H0v-4Z"/><path class="cls-1" d="M20,200h4v4h-4v-4Z"/><path class="cls-1" d="M40,200h4v4h-4v-4Z"/><path class="cls-1" d="M60,200h4v4h-4v-4Z"/><path class="cls-1" d="M80,200h4v4h-4v-4Z"/><path class="cls-1" d="M100,200h4v4h-4v-4Z"/><path class="cls-1" d="M120,200h4v4h-4v-4Z"/><path class="cls-1" d="M140,200h4v4h-4v-4Z"/><path class="cls-1" d="M160,200h4v4h-4v-4Z"/><path class="cls-1" d="M180,200h4v4h-4v-4Z"/><path class="cls-1" d="M200,200h4v4h-4v-4Z"/><path class="cls-1" d="M220,200h4v4h-4v-4Z"/><path class="cls-1" d="M240,200h4v4h-4v-4Z"/><path class="cls-1" d="M0,220H4v4H0v-4Z"/><path class="cls-1" d="M20,220h4v4h-4v-4Z"/><path class="cls-1" d="M40,220h4v4h-4v-4Z"/><path class="cls-1" d="M60,220h4v4h-4v-4Z"/><path class="cls-1" d="M80,220h4v4h-4v-4Z"/><path class="cls-1" d="M100,220h4v4h-4v-4Z"/><path class="cls-1" d="M120,220h4v4h-4v-4Z"/><path class="cls-1" d="M140,220h4v4h-4v-4Z"/><path class="cls-1" d="M160,220h4v4h-4v-4Z"/><path class="cls-1" d="M180,220h4v4h-4v-4Z"/><path class="cls-1" d="M200,220h4v4h-4v-4Z"/><path class="cls-1" d="M220,220h4v4h-4v-4Z"/><path class="cls-1" d="M240,220h4v4h-4v-4Z"/><path class="cls-1" d="M0,240H4v4H0v-4Z"/><path class="cls-1" d="M20,240h4v4h-4v-4Z"/><path class="cls-1" d="M40,240h4v4h-4v-4Z"/><path class="cls-1" d="M60,240h4v4h-4v-4Z"/><path class="cls-1" d="M80,240h4v4h-4v-4Z"/><path class="cls-1" d="M100,240h4v4h-4v-4Z"/><path class="cls-1" d="M120,240h4v4h-4v-4Z"/><path class="cls-1" d="M140,240h4v4h-4v-4Z"/><path class="cls-1" d="M160,240h4v4h-4v-4Z"/><path class="cls-1" d="M180,240h4v4h-4v-4Z"/><path class="cls-1" d="M200,240h4v4h-4v-4Z"/><path class="cls-1" d="M220,240h4v4h-4v-4Z"/><path class="cls-1" d="M240,240h4v4h-4v-4Z"/><path class="cls-1" d="M0,260H4v4H0v-4Z"/><path class="cls-1" d="M20,260h4v4h-4v-4Z"/><path class="cls-1" d="M40,260h4v4h-4v-4Z"/><path class="cls-1" d="M60,260h4v4h-4v-4Z"/><path class="cls-1" d="M80,260h4v4h-4v-4Z"/><path class="cls-1" d="M100,260h4v4h-4v-4Z"/><path class="cls-1" d="M120,260h4v4h-4v-4Z"/><path class="cls-1" d="M140,260h4v4h-4v-4Z"/><path class="cls-1" d="M160,260h4v4h-4v-4Z"/><path class="cls-1" d="M180,260h4v4h-4v-4Z"/><path class="cls-1" d="M200,260h4v4h-4v-4Z"/><path class="cls-1" d="M220,260h4v4h-4v-4Z"/><path class="cls-1" d="M240,260h4v4h-4v-4Z"/><path class="cls-1" d="M0,280H4v4H0v-4Z"/><path class="cls-1" d="M20,280h4v4h-4v-4Z"/><path class="cls-1" d="M40,280h4v4h-4v-4Z"/><path class="cls-1" d="M60,280h4v4h-4v-4Z"/><path class="cls-1" d="M80,280h4v4h-4v-4Z"/><path class="cls-1" d="M100,280h4v4h-4v-4Z"/><path class="cls-1" d="M120,280h4v4h-4v-4Z"/><path class="cls-1" d="M140,280h4v4h-4v-4Z"/><path class="cls-1" d="M160,280h4v4h-4v-4Z"/><path class="cls-1" d="M180,280h4v4h-4v-4Z"/><path class="cls-1" d="M200,280h4v4h-4v-4Z"/><path class="cls-1" d="M220,280h4v4h-4v-4Z"/><path class="cls-1" d="M240,280h4v4h-4v-4Z"/></svg>